<?xml version="1.0" ?><svg style="enable-background:new 0 0 512 512;" version="1.1" viewBox="0 0 512 512" xml:space="preserve" xmlns="http://www.w3.org/2000/svg" xmlns:xlink="http://www.w3.org/1999/xlink"><style type="text/css">
	.st0{fill:#1E1E1E;}
	.st1{fill:#464646;stroke:#21759B;stroke-width:2;stroke-miterlimit:10;}
	.st2{fill:#FFFFFF;}
</style><g id="Edges"/><g id="Background_Bottom"><g><path class="st0" d="M492.3,443.1c0,34.2-27.7,61.9-61.9,61.9H80.7c-34.2,0-61.9-27.7-61.9-61.9V93.4c0-34.2,27.7-61.9,61.9-61.9    h349.7c34.2,0,61.9,27.7,61.9,61.9V443.1z"/></g></g><g id="Background"><path class="st1" d="M492.3,418.4c0,34.2-27.7,61.9-61.9,61.9H80.7c-34.2,0-61.9-27.7-61.9-61.9V68.6c0-34.2,27.7-61.9,61.9-61.9   h349.7c34.2,0,61.9,27.7,61.9,61.9V418.4z"/></g><g id="Symbol"><g id="Logo-White"><path class="st2" d="M70.2,290V284c-4.1,4.8-10.7,7.4-18.1,7.4c-9,0-19.2-6.2-19.2-18.3    c0-12.8,10.1-18.1,19.2-18.1c7.6,0,13.9,2.4,18.1,7.1l0-8.2c0-6.4-5.4-10.3-13-10.3c-6.2,0-11.7,2.3-16.5,7.1l-5.1-8.4    c6.4-6.2,14.5-8.9,23.4-8.9c12.4,0,23.3,5.1,23.3,19.9l0,36.7H70.2z M70.2,277.5V269c-2.9-3.8-8.1-5.7-13.2-5.7c-6.8,0-12,4-12,10    c0,6.1,5.2,10,12,10C62.2,283.2,67.4,281.2,70.2,277.5z M91.7,290l0-76.2l12.1,0l0,28.7c4.5-5.9,11-9,17.9-9    c14.4,0,24.8,11.1,24.8,28.9c0,18.3-10.5,29-24.8,29c-7.2,0-13.6-3.4-17.9-8.9v7.5L91.7,290z M118.3,280.8    c9.6,0,15.7-7.7,15.7-18.4c0-10.6-6.1-18.3-15.7-18.3c-5.8,0-11.7,3.3-14.4,7.4l0,21.9C106.6,277.6,112.5,280.8,118.3,280.8z     M152.1,262.4c0-15.9,10.9-29,28.6-29c17.8,0,28.6,13,28.6,29c0,15.8-10.8,29.1-28.6,29.1C162.9,291.4,152.1,278.1,152.1,262.4z     M196.8,262.4c0-9.7-5.7-18.3-16-18.3c-10.3,0-16,8.6-16,18.3c0,9.8,5.8,18.4,16,18.4C191.1,280.8,196.8,272.2,196.8,262.4z     M253,289.3V282c-3.9,4.3-10.8,8.7-19.5,8.7c-11.9,0-17.9-6.3-17.9-17.4l0-39l12,0l0,34.6c0,8.6,4.4,11.3,11.2,11.3    c6.1,0,11.3-3.5,14.1-7.2l0-38.7l12,0l0,55.1L253,289.3L253,289.3z M282,276.4l0-31.7l-9.1,0v-10.4h9.1l0-15l12,0v15h11.2l0,10.4    l-11.2,0l0,28.8c0,3.8,1.8,6.6,5.3,6.6c2.3,0,4.3-1,5.3-2.1l2.9,9.1c-2.2,1.9-5.7,3.5-11.2,3.5C286.8,290.6,282,285.6,282,276.4z     M313.6,282.7c0-4.1,3.6-7.7,7.8-7.7c4.3,0,7.8,3.6,7.8,7.7c0,4.3-3.6,8-7.8,8C317.2,290.6,313.6,286.9,313.6,282.7z M403.5,289.9    l0-35.9c0-5.9-2.6-9.9-9.2-9.9c-5.4,0-10.4,3.6-12.8,7.3l0,38.5h-12l0-35.9c0-5.9-2.5-9.9-9.1-9.9c-5.4,0-10.3,3.8-12.8,7.3v38.5    h-12l0-55.1l12,0v7.4c2.4-3.3,9.6-8.8,18.1-8.8c8.2,0,13.3,4.1,15.1,10c3.1-4.9,10.4-10,18.8-10c10.1,0,15.9,5.5,15.9,16.6l0,39.8    H403.5z M422.6,262.4c0-16,11.8-28.9,28.3-28.9c16.7,0,27.4,12.6,27.4,30v3l-43,0c0.9,8.2,7.2,15.2,17.7,15.2    c5.6,0,11.9-2.2,15.9-6.2l5.5,7.9c-5.7,5.3-13.9,8.1-22.6,8.1C434.9,291.4,422.6,279.9,422.6,262.4z M450.8,243.2    c-10.3,0-15.1,7.9-15.6,14.5l31.4,0C466.2,251.3,461.7,243.2,450.8,243.2z" id="aboutme_logo_white"/></g></g></svg>